DataType=double
version=3
OpenSimVersion=4.2-2021-03-12-fcedec9
endheader
time	ground_force_r_vx	ground_force_r_vy	ground_force_r_vz	ground_force_r_px	ground_force_r_py	ground_force_r_pz	ground_force_l_vx	ground_force_l_vy	ground_force_l_vz	ground_force_l_px	ground_force_l_py	ground_force_l_pz	ground_torque_r_x	ground_torque_r_y	ground_torque_r_z	ground_torque_l_x	ground_torque_l_y	ground_torque_l_z
0.868	-4.264969211710565	2.098282750576227	0	0	0	0	0	0	0	0	0	0	0	0	0.07912381920576468	0	0	0
0.8693602140283342	-10.84530043398768	5.019976045258191	0	0	0	0	0	0	0	0	0	0	0	0	0.0886774029475466	0	0	0
0.8707204280566684	-25.61432115349677	11.791522377827	0	0	0	0	0	0	0	0	0	0	0	0	0.05292157116599903	0	0	0
0.8720806420850026	-56.17586080875633	26.44407947743499	0	0	0	0	0	0	0	0	0	0	0	0	0.02300067673926952	0	0	0
0.8734408561133368	-105.9612998777943	51.98824311909362	0	0	0	0	0	0	0	0	0	0	0	0	0.1273894508492781	0	0	0
0.874801070141671	-167.0622410966216	86.14194997469687	0	0	0	0	0	0	0	0	0	0	0	0	0.5190548390532022	0	0	0
0.8761612841700052	-242.9816083209173	133.2570222305432	0	0	0	0	0	0	0	0	0	0	0	0	1.28213985171163	0	0	0
0.8775214981983394	-373.6229581555941	224.4186126713528	0	0	0	0	0	0	0	0	0	0	0	0	2.74018860070499	0	0	0
0.8788817122266737	-523.3782781757259	359.3022659679405	0	0	0	0	0	0	0	0	0	0	0	0	5.712681711830165	0	0	0
0.8802419262550079	-615.7282282820109	501.9174818896192	0	0	0	0	0	0	0	0	0	0	0	0	10.47270574019256	0	0	0
0.8816021402833421	-652.2683557527298	638.0311915701805	0	0	0	0	0	0	0	0	0	0	0	0	16.68307273836072	0	0	0
0.8829623543116762	-646.9500189549625	782.5512496929987	0	0	0	0	0	0	0	0	0	0	0	0	25.17257789046162	0	0	0
0.8843225683400104	-425.7557255443062	957.6149386811417	0	0	0	0	0	0	0	0	0	0	0	0	38.28997774647173	0	0	0
0.8856827823683446	-418.7087774643783	1150.608047001311	0	0	0	0	0	0	0	0	0	0	0	0	49.752516791164	0	0	0
0.8870429963966788	-315.3659768842705	1323.700513664282	0	0	0	0	0	0	0	0	0	0	0	0	61.44107833264508	0	0	0
0.888403210425013	-264.5547101418173	1452.774761352397	0	0	0	0	0	0	0	0	0	0	0	0	70.38658219070632	0	0	0
0.8897634244533472	-177.0846941611441	1544.433710527312	0	0	0	0	0	0	0	0	0	0	0	0	78.76716936295105	0	0	0
0.8911236384816814	-164.8545030564304	1609.125912606116	0	0	0	0	0	0	0	0	0	0	0	0	87.093790644194	0	0	0
0.8924838525100156	-99.53498209524702	1653.956095647495	0	0	0	0	0	0	0	0	0	0	0	0	96.63376578037511	0	0	0
0.8938440665383498	-97.00934023250959	1687.394801556554	0	0	0	0	0	0	0	0	0	0	0	0	106.0521453638509	0	0	0
0.895204280566684	-60.04233514535606	1699.851566392127	0	0	0	0	0	0	0	0	0	0	0	0	115.6895415760314	0	0	0
0.8965644945950182	-89.83969312099079	1700.54573691473	0	0	0	0	0	0	0	0	0	0	0	0	125.2200504335076	0	0	0
0.8979247086233524	-54.99811116628462	1707.051235761835	0	0	0	0	0	0	0	0	0	0	0	0	137.0822391388295	0	0	0
0.8992849226516866	-90.45183962382049	1713.35975529946	0	0	0	0	0	0	0	0	0	0	0	0	149.7588525793464	0	0	0
0.9006451366800209	-96.61794374106883	1713.168413432252	0	0	0	0	0	0	0	0	0	0	0	0	161.6494513839501	0	0	0
0.9020053507083551	-156.9978163175672	1713.464468573336	0	0	0	0	0	0	0	0	0	0	0	0	171.185734125502	0	0	0
0.9033655647366893	-167.5430118003696	1709.298190562973	0	0	0	0	0	0	0	0	0	0	0	0	179.8339892293724	0	0	0
0.9047257787650235	-231.8475504970097	1694.719778957927	0	0	0	0	0	0	0	0	0	0	0	0	186.9270983844631	0	0	0
0.9060859927933577	-240.406654223327	1676.741340618774	0	0	0	0	0	0	0	0	0	0	0	0	193.8182600977113	0	0	0
0.9074462068216919	-292.0124097748946	1655.03123580949	0	0	0	0	0	0	0	0	0	0	0	0	199.7913842639474	0	0	0
0.9088064208500261	-294.2337607274003	1633.893336390044	0	0	0	0	0	0	0	0	0	0	0	0	206.0759297796667	0	0	0
0.9101666348783602	-330.7215672404904	1616.013852308792	0	0	0	0	0	0	0	0	0	0	0	0	211.9279709200735	0	0	0
0.9115268489066944	-321.1091155578133	1601.434905371088	0	0	0	0	0	0	0	0	0	0	0	0	218.3071425036374	0	0	0
0.9128870629350286	-330.3509438853521	1591.314274545129	0	0	0	0	0	0	0	0	0	0	0	0	224.5715251065624	0	0	0
0.9142472769633628	-308.458986752231	1584.373335427142	0	0	0	0	0	0	0	0	0	0	0	0	232.3647083213185	0	0	0
0.915607490991697	-295.7105802973891	1577.397196139457	0	0	0	0	0	0	0	0	0	0	0	0	240.1089701343878	0	0	0
0.9169677050200312	-272.8910875328561	1576.709450558311	0	0	0	0	0	0	0	0	0	0	0	0	248.4828057309251	0	0	0
0.9183279190483654	-255.1137380635726	1581.012364975121	0	0	0	0	0	0	0	0	0	0	0	0	256.5706854392552	0	0	0
0.9196881330766997	-232.0372688285944	1587.73524154118	0	0	0	0	0	0	0	0	0	0	0	0	264.7060153368473	0	0	0
0.9210483471050339	-216.9986462801286	1592.471790574918	0	0	0	0	0	0	0	0	0	0	0	0	271.4826242386072	0	0	0
0.9224085611333681	-201.6816020206846	1606.959406280994	0	0	0	0	0	0	0	0	0	0	0	0	276.8303179523934	0	0	0
0.9237687751617023	-182.8052069710654	1618.515922570415	0	0	0	0	0	0	0	0	0	0	0	0	280.3698155537566	0	0	0
0.9251289891900365	-166.4223852014122	1628.511369015757	0	0	0	0	0	0	0	0	0	0	0	0	283.8989535727623	0	0	0
0.9264892032183707	-153.6757126057572	1640.728445599577	0	0	0	0	0	0	0	0	0	0	0	0	287.8352557355062	0	0	0
0.9278494172467049	-137.4219949734799	1654.988689818128	0	0	0	0	0	0	0	0	0	0	0	0	292.1905527839617	0	0	0
0.9292096312750391	-119.4937138767935	1669.823468749613	0	0	0	0	0	0	0	0	0	0	0	0	296.6905485567498	0	0	0
0.9305698453033733	-101.666711035264	1683.944968684862	0	0	0	0	0	0	0	0	0	0	0	0	301.1026494040557	0	0	0
0.9319300593317075	-85.0545693646547	1696.722143977278	0	0	0	0	0	0	0	0	0	0	0	0	305.269456287793	0	0	0
0.9332902733600417	-68.12931133273074	1706.981042196612	0	0	0	0	0	0	0	0	0	0	0	0	308.9842047900813	0	0	0
0.9346504873883759	-51.276930189814	1714.757335928871	0	0	0	0	0	0	0	0	0	0	0	0	312.2143959385778	0	0	0
0.9360107014167101	-34.58298202122832	1720.78460983965	0	0	0	0	0	0	0	0	0	0	0	0	315.083130858686	0	0	0
0.9373709154450443	-18.29461899445366	1724.944531105269	0	0	0	0	0	0	0	0	0	0	0	0	317.5715848511625	0	0	0
0.9387311294733784	-1.979614967481066	1727.137067853464	0	0	0	0	0	0	0	0	0	0	0	0	319.69512272355	0	0	0
0.9400913435017126	13.97122733343975	1727.253825173808	0	0	0	0	0	0	0	0	0	0	0	0	321.4408691590936	0	0	0
0.9414515575300468	29.44610085836875	1725.803419102313	0	0	0	0	0	0	0	0	0	0	0	0	322.8719222882962	0	0	0
0.9428117715583811	44.33981715161839	1723.292479441737	0	0	0	0	0	0	0	0	0	0	0	0	324.0521314616344	0	0	0
0.9441719855867153	58.98491847270644	1718.510452716846	0	0	0	0	0	0	0	0	0	0	0	0	324.765400851765	0	0	0
0.9455321996150495	72.13272746636915	1711.741507874787	0	0	0	0	0	0	0	0	0	0	0	0	325.014015698819	0	0	0
0.9468924136433837	85.32911893731603	1703.56360039715	0	0	0	0	0	0	0	0	0	0	0	0	325.012534577027	0	0	0
0.9482526276717179	98.70740676581234	1693.144790702625	0	0	0	0	0	0	0	0	0	0	0	0	324.6818349976791	0	0	0
0.9496128417000521	111.1442955768821	1680.915394839816	0	0	0	0	0	0	0	0	0	0	0	0	324.0695638598507	0	0	0
0.9509730557283863	123.0674302216845	1666.744918220764	0	0	0	0	0	0	0	0	0	0	0	0	323.1648754741883	0	0	0
0.9523332697567205	134.4056154159328	1650.664522943518	0	0	0	0	0	0	0	0	0	0	0	0	321.9517330530951	0	0	0
0.9536934837850547	145.0791945070312	1632.999283582491	0	0	0	0	0	0	0	0	0	0	0	0	320.4665875551658	0	0	0
0.9550536978133889	155.133175081547	1613.592858004451	0	0	0	0	0	0	0	0	0	0	0	0	318.6889159038103	0	0	0
0.9564139118417231	165.829549577376	1591.599517932023	0	0	0	0	0	0	0	0	0	0	0	0	316.5441408635615	0	0	0
0.9577741258700573	178.8533662650423	1567.419647917754	0	0	0	0	0	0	0	0	0	0	0	0	314.007737561295	0	0	0
0.9591343398983915	194.9464070191747	1552.585423334534	0	0	0	0	0	0	0	0	0	0	0	0	311.8559187395843	0	0	0
0.9604945539267258	211.4232697223774	1535.668378764355	0	0	0	0	0	0	0	0	0	0	0	0	309.0826499956466	0	0	0
0.9618547679550599	223.8937981967013	1520.421385417501	0	0	0	0	0	0	0	0	0	0	0	0	306.5371050819684	0	0	0
0.9632149819833942	238.4403527395909	1502.902748431842	0	0	0	0	0	0	0	0	0	0	0	0	303.6902171454324	0	0	0
0.9645751960117284	254.3543896702263	1484.218446039597	0	0	0	0	0	0	0	0	0	0	0	0	300.7285899258646	0	0	0
0.9659354100400626	269.337506625368	1465.288370991208	0	0	0	0	0	0	0	0	0	0	0	0	297.7086413882959	0	0	0
0.9672956240683968	284.511636236718	1446.087409240279	0	0	0	0	0	0	0	0	0	0	0	0	294.6886404429445	0	0	0
0.9686558380967309	299.2418998219778	1426.436075567295	0	0	0	0	0	0	0	0	0	0	0	0	291.5981282856706	0	0	0
0.9700160521250651	314.6608683685289	1406.218428779553	0	0	0	0	0	0	0	0	0	0	0	0	288.4877870242175	0	0	0
0.9713762661533993	330.3278989792785	1385.418001945374	0	0	0	0	0	0	0	0	0	0	0	0	285.3331728337936	0	0	0
0.9727364801817335	342.8592784487705	1361.328336593012	0	0	0	0	0	0	0	0	0	0	0	0	281.3917912583489	0	0	0
0.9740966942100677	350.3031487988163	1329.287236645104	0	0	0	0	0	0	0	0	0	0	0	0	275.6309254753851	0	0	0
0.9754569082384019	355.924679694081	1293.499423424026	0	0	0	0	0	0	0	0	0	0	0	0	269.0671438448613	0	0	0
0.9768171222667361	362.8357882803157	1258.538514085676	0	0	0	0	0	0	0	0	0	0	0	0	262.7942231371487	0	0	0
0.9781773362950703	369.5681496253957	1223.52659284118	0	0	0	0	0	0	0	0	0	0	0	0	256.5427792605187	0	0	0
0.9795375503234045	374.4398510146402	1184.528800892499	0	0	0	0	0	0	0	0	0	0	0	0	249.4503165389393	0	0	0
0.9808977643517387	379.9195331767543	1143.029268236898	0	0	0	0	0	0	0	0	0	0	0	0	242.0053109846101	0	0	0
0.9822579783800729	385.6611111821605	1105.448901420172	0	0	0	0	0	0	0	0	0	0	0	0	235.362636224083	0	0	0
0.9836181924084071	390.3649659263837	1070.493406781519	0	0	0	0	0	0	0	0	0	0	0	0	229.1599755211267	0	0	0
0.9849784064367414	394.355872249784	1035.800931778505	0	0	0	0	0	0	0	0	0	0	0	0	222.9905870643318	0	0	0
0.9863386204650756	396.2818080997397	998.8241270192257	0	0	0	0	0	0	0	0	0	0	0	0	216.2654932024383	0	0	0
0.9876988344934098	396.5234256182922	954.1171090654086	0	0	0	0	0	0	0	0	0	0	0	0	208.066333230083	0	0	0
0.989059048521744	393.8184878141294	903.7082062709319	0	0	0	0	0	0	0	0	0	0	0	0	198.641894174975	0	0	0
0.9904192625500782	384.464056135538	852.635929448836	0	0	0	0	0	0	0	0	0	0	0	0	188.4585312224888	0	0	0
0.9917794765784124	370.6283077124359	800.0875840391803	0	0	0	0	0	0	0	0	0	0	0	0	177.5691280006874	0	0	0
0.9931396906067466	356.6513246734463	742.3237970196878	0	0	0	0	0	0	0	0	0	0	0	0	165.833272369163	0	0	0
0.9944999046350808	340.6213320135821	682.8544822680053	0	0	0	0	0	0	0	0	0	0	0	0	153.6458712826025	0	0	0
0.995860118663415	315.0479940437288	633.5823466540479	0	0	0	0	0	0	0	0	0	0	0	0	141.9984615913862	0	0	0
0.9972203326917491	261.6284263755692	569.244647384589	0	0	0	0	0	0	0	0	0	0	0	0	124.3287572688805	0	0	0
0.9985805467200833	184.8752001111246	443.2178299462701	0	0	0	0	0	0	0	0	0	0	0	0	93.79052758826646	0	0	0
0.9999407607484175	115.0092312352247	273.1091806937124	0	0	0	0	0	0	0	0	0	0	0	0	57.5517123491134	0	0	0
1.001300974776752	52.66131393891654	102.8344156553176	0	0	0	0	0	0	0	0	0	0	0	0	22.83370033667572	0	0	0
1.002661188805086	-2.187093676938694	-3.351282328278313	0	0	0	0	0	0	0	0	0	0	0	0	-0.8081582938689628	0	0	0
1.00402140283342	-1.610940609881912e-08	-1.186614894400927e-07	0	0	0	0	0	0	0	0	0	0	0	0	-1.933409504737398e-08	0	0	0
1.005381616861754	0	0	0	0	0	0	0	0	0	0	0	0	0	0	0	0	0	0
1.006741830890089	0	0	0	0	0	0	0	0	0	0	0	0	0	0	0	0	0	0
1.008102044918423	0	0	0	0	0	0	0	0	0	0	0	0	0	0	0	0	0	0
1.009462258946757	0	0	0	0	0	0	0	0	0	0	0	0	0	0	0	0	0	0
1.010822472975091	0	0	0	0	0	0	0	0	0	0	0	0	0	0	0	0	0	0
1.012182687003425	0	0	0	0	0	0	0	0	0	0	0	0	0	0	0	0	0	0
1.01354290103176	0	0	0	0	0	0	0	0	0	0	0	0	0	0	0	0	0	0
1.014903115060094	0	0	0	0	0	0	0	0	0	0	0	0	0	0	0	0	0	0
1.016263329088428	0	0	0	0	0	0	0	0	0	0	0	0	0	0	0	0	0	0
1.017623543116762	0	0	0	0	0	0	0	0	0	0	0	0	0	0	0	0	0	0
1.018983757145096	0	0	0	0	0	0	0	0	0	0	0	0	0	0	0	0	0	0
1.020343971173431	0	0	0	0	0	0	0	0	0	0	0	0	0	0	0	0	0	0
1.021704185201765	0	0	0	0	0	0	0	0	0	0	0	0	0	0	0	0	0	0
1.023064399230099	0	0	0	0	0	0	0	0	0	0	0	0	0	0	0	0	0	0
1.024424613258433	0	0	0	0	0	0	0	0	0	0	0	0	0	0	0	0	0	0
1.025784827286767	0	0	0	0	0	0	0	0	0	0	0	0	0	0	0	0	0	0
1.027145041315102	0	0	0	0	0	0	0	0	0	0	0	0	0	0	0	0	0	0
1.028505255343436	0	0	0	0	0	0	0	0	0	0	0	0	0	0	0	0	0	0
1.02986546937177	0	0	0	0	0	0	0	0	0	0	0	0	0	0	0	0	0	0
1.031225683400104	0	0	0	0	0	0	0	0	0	0	0	0	0	0	0	0	0	0
1.032585897428438	0	0	0	0	0	0	0	0	0	0	0	0	0	0	0	0	0	0
1.033946111456773	0	0	0	0	0	0	0	0	0	0	0	0	0	0	0	0	0	0
1.035306325485107	0	0	0	0	0	0	0	0	0	0	0	0	0	0	0	0	0	0
1.036666539513441	0	0	0	0	0	0	0	0	0	0	0	0	0	0	0	0	0	0
1.038026753541775	0	0	0	0	0	0	0	0	0	0	0	0	0	0	0	0	0	0
1.03938696757011	0	0	0	0	0	0	0	0	0	0	0	0	0	0	0	0	0	0
1.040747181598444	0	0	0	0	0	0	0	0	0	0	0	0	0	0	0	0	0	0
1.042107395626778	0	0	0	0	0	0	0	0	0	0	0	0	0	0	0	0	0	0
1.043467609655112	0	0	0	0	0	0	0	0	0	0	0	0	0	0	0	0	0	0
